# xmcd CD database file
#
# Track frame offsets:
#	150
#	16562
#	35703
#	51419
#	73680
#	88834
#	104443
#	111597
#	128143
#	147181
#	151845
#	154443
#	168225
#
# Disc length: 2418 seconds
#
# Revision: 1
# Processed by: cddbd v1.5.2PL0 Copyright (c) Steve Scherf et al.
# Submitted via: CDex 1.75
#
DISCID=b309700d
DTITLE=Ben Jones and Cooters Garage Band - Southern To The Bone
DYEAR=2012
DGENRE=Country
TTITLE0=The Devil Went Down to Georgia
TTITLE1=Maybelline
TTITLE2=01 '55
TTITLE3=Wabash Cannonball - Orange Blossom Specia
TTITLE4=Give My Love to Rose
TTITLE5=You Go to Your Church and I'll Go to Mine
TTITLE6=12th Street Rag
TTITLE7=The Wreck of the Old 97
TTITLE8=Redneck Boy in the Promised Land
TTITLE9=Armistead's Dream
TTITLE10=Dixie
TTITLE11=Sentimental Journey
TTITLE12=Boogie Woogie Country Man
EXTD=YEAR: 2012
EXTT0=
EXTT1=
EXTT2=
EXTT3=
EXTT4=
EXTT5=
EXTT6=
EXTT7=
EXTT8=
EXTT9=
EXTT10=
EXTT11=
EXTT12=
PLAYORDER=
